{
  "accessors": [
    {
      "bufferView": 2,
      "componentType": 5126,
      "count": 24007,
      "max": [
        34.698265075683594,
        32.8188591003418,
        69.93419647216797
      ],
      "min": [
        -76.82654571533203,
        -0.21496379375457764,
        -18.338451385498047
      ],
      "type": "VEC3"
    },
    {
      "bufferView": 2,
      "byteOffset": 288084,
      "componentType": 5126,
      "count": 24007,
      "max": [
        0.9999897480010986,
        0.9999933838844299,
        0.999977707862854
      ],
      "min": [
        -0.9999271035194397,
        -0.9999793171882629,
        -0.9999943971633911
      ],
      "type": "VEC3"
    },
    {
      "bufferView": 1,
      "componentType": 5126,
      "count": 24007,
      "max": [
        0.9943374991416931,
        0.9943156242370605
      ],
      "min": [
        0.0032464032992720604,
        0.003911316394805908
      ],
      "type": "VEC2"
    },
    {
      "bufferView": 1,
      "byteOffset": 192056,
      "componentType": 5126,
      "count": 24007,
      "max": [
        0.9943374991416931,
        0.9943156242370605
      ],
      "min": [
        0.0032464032992720604,
        0.003911316394805908
      ],
      "type": "VEC2"
    },
    {
      "bufferView": 1,
      "byteOffset": 384112,
      "componentType": 5126,
      "count": 24007,
      "max": [
        0.9943374991416931,
        0.9943156242370605
      ],
      "min": [
        0.0032464032992720604,
        0.003911316394805908
      ],
      "type": "VEC2"
    },
    {
      "bufferView": 0,
      "componentType": 5125,
      "count": 132942,
      "type": "SCALAR"
    }
  ],
  "asset": {
    "extras": {
      "author": "nathaniel (https://sketchfab.com/Xfdfgd)",
      "license": "CC-BY-4.0 (http://creativecommons.org/licenses/by/4.0/)",
      "source": "https://sketchfab.com/3d-models/komodo-dragon-0b8679521991420a8b48a6e63018f52c",
      "title": "Komodo Dragon"
    },
    "generator": "Sketchfab-15.10.0",
    "version": "2.0"
  },
  "bufferViews": [
    {
      "buffer": 0,
      "byteLength": 531768,
      "name": "floatBufferViews",
      "target": 34963
    },
    {
      "buffer": 0,
      "byteLength": 576168,
      "byteOffset": 531768,
      "byteStride": 8,
      "name": "floatBufferViews",
      "target": 34962
    },
    {
      "buffer": 0,
      "byteLength": 576168,
      "byteOffset": 1107936,
      "byteStride": 12,
      "name": "floatBufferViews",
      "target": 34962
    }
  ],
  "buffers": [
    {
      "byteLength": 1684104,
      "uri": "scene.bin"
    }
  ],
  "extensionsRequired": [
    "KHR_materials_pbrSpecularGlossiness"
  ],
  "extensionsUsed": [
    "KHR_materials_pbrSpecularGlossiness"
  ],
  "images": [
    {
      "uri": "textures/1111_diffuse.png"
    },
    {
      "uri": "textures/1111_specularGlossiness.png"
    }
  ],
  "materials": [
    {
      "doubleSided": true,
      "extensions": {
        "KHR_materials_pbrSpecularGlossiness": {
          "diffuseFactor": [
            1.0,
            1.0,
            1.0,
            1.0
          ],
          "diffuseTexture": {
            "index": 0
          },
          "glossinessFactor": 1.0,
          "specularFactor": [
            1.0,
            1.0,
            1.0
          ],
          "specularGlossinessTexture": {
            "index": 1
          }
        }
      },
      "name": "1111"
    }
  ],
  "meshes": [
    {
      "name": "Object_0",
      "primitives": [
        {
          "attributes": {
            "NORMAL": 1,
            "POSITION": 0,
            "TEXCOORD_0": 2,
            "TEXCOORD_1": 3,
            "TEXCOORD_2": 4
          },
          "indices": 5,
          "material": 0,
          "mode": 4
        }
      ]
    }
  ],
  "nodes": [
    {
      "children": [
        1
      ],
      "matrix": [
        1.0,
        0.0,
        0.0,
        0.0,
        0.0,
        2.220446049250313e-16,
        -1.0,
        0.0,
        0.0,
        1.0,
        2.220446049250313e-16,
        0.0,
        0.0,
        0.0,
        0.0,
        1.0
      ],
      "name": "Sketchfab_model"
    },
    {
      "children": [
        2
      ],
      "name": "root"
    },
    {
      "children": [
        3
      ],
      "matrix": [
        1.0,
        0.0,
        0.0,
        0.0,
        0.0,
        2.220446049250313e-16,
        1.0,
        0.0,
        0.0,
        -1.0,
        2.220446049250313e-16,
        0.0,
        0.0,
        0.0,
        0.0,
        1.0
      ],
      "name": "GLTF_SceneRootNode"
    },
    {
      "children": [
        4
      ],
      "name": "root_0"
    },
    {
      "children": [
        5
      ],
      "matrix": [
        0.004590906668454409,
        0.0,
        0.0,
        0.0,
        0.0,
        0.004590906668454409,
        0.0,
        0.0,
        0.0,
        0.0,
        0.004590906668454409,
        0.0,
        0.051247064024209976,
        -0.18001312017440796,
        0.13756391406059265,
        1.0
      ],
      "name": "node_id66_1"
    },
    {
      "mesh": 0,
      "name": "Object_5"
    }
  ],
  "samplers": [
    {
      "magFilter": 9729,
      "minFilter": 9987,
      "wrapS": 10497,
      "wrapT": 10497
    }
  ],
  "scene": 0,
  "scenes": [
    {
      "name": "Sketchfab_Scene",
      "nodes": [
        0
      ]
    }
  ],
  "textures": [
    {
      "sampler": 0,
      "source": 0
    },
    {
      "sampler": 0,
      "source": 1
    }
  ]
}
