{
  "accessors": [
    {
      "bufferView": 2,
      "componentType": 5126,
      "count": 10023,
      "max": [
        4.9978485107421875,
        3.8908276557922363,
        2.514824867248535
      ],
      "min": [
        -4.9978485107421875,
        -1.2696094512939453,
        -6.380367755889893
      ],
      "type": "VEC3"
    },
    {
      "bufferView": 2,
      "byteOffset": 120276,
      "componentType": 5126,
      "count": 10023,
      "max": [
        0.9999969005584717,
        1.0,
        0.9990953207015991
      ],
      "min": [
        -0.9999969005584717,
        -1.0,
        -0.997215986251831
      ],
      "type": "VEC3"
    },
    {
      "bufferView": 1,
      "componentType": 5126,
      "count": 10023,
      "max": [
        1.000000238418579,
        1.000000238418579
      ],
      "min": [
        0.0,
        0.0
      ],
      "type": "VEC2"
    },
    {
      "bufferView": 0,
      "componentType": 5125,
      "count": 52644,
      "type": "SCALAR"
    },
    {
      "bufferView": 2,
      "byteOffset": 240552,
      "componentType": 5126,
      "count": 3603,
      "max": [
        1.3707494735717773,
        1.198173999786377,
        2.08657169342041
      ],
      "min": [
        -1.3707494735717773,
        -0.8704204559326172,
        -1.085615873336792
      ],
      "type": "VEC3"
    },
    {
      "bufferView": 2,
      "byteOffset": 283788,
      "componentType": 5126,
      "count": 3603,
      "max": [
        0.99693363904953,
        0.9948047995567322,
        0.9821164608001709
      ],
      "min": [
        -0.99693363904953,
        -0.9857140779495239,
        -0.9958672523498535
      ],
      "type": "VEC3"
    },
    {
      "bufferView": 1,
      "byteOffset": 80184,
      "componentType": 5126,
      "count": 3603,
      "max": [
        0.6250001788139343,
        1.0000001192092896
      ],
      "min": [
        0.0,
        0.0
      ],
      "type": "VEC2"
    },
    {
      "bufferView": 0,
      "byteOffset": 210576,
      "componentType": 5125,
      "count": 14736,
      "type": "SCALAR"
    },
    {
      "bufferView": 2,
      "byteOffset": 327024,
      "componentType": 5126,
      "count": 3284,
      "max": [
        3.840492010116577,
        3.823453903198242,
        0.5943422317504883
      ],
      "min": [
        -3.8404922485351563,
        -1.252601981163025,
        -6.2520976066589355
      ],
      "type": "VEC3"
    },
    {
      "bufferView": 2,
      "byteOffset": 366432,
      "componentType": 5126,
      "count": 3284,
      "max": [
        0.9981837868690491,
        0.9999730587005615,
        0.9999790191650391
      ],
      "min": [
        -0.9981837868690491,
        -0.9993363618850708,
        -0.9999649524688721
      ],
      "type": "VEC3"
    },
    {
      "bufferView": 1,
      "byteOffset": 109008,
      "componentType": 5126,
      "count": 3284,
      "max": [
        1.0000001192092896,
        1.0000001192092896
      ],
      "min": [
        0.0,
        0.0
      ],
      "type": "VEC2"
    },
    {
      "bufferView": 0,
      "byteOffset": 269520,
      "componentType": 5125,
      "count": 17088,
      "type": "SCALAR"
    },
    {
      "bufferView": 2,
      "byteOffset": 405840,
      "componentType": 5126,
      "count": 2070,
      "max": [
        3.4503583908081055,
        0.938587486743927,
        0.09999999403953552
      ],
      "min": [
        0.02047082781791687,
        -0.0051177069544792175,
        -0.09999999403953552
      ],
      "type": "VEC3"
    },
    {
      "bufferView": 2,
      "byteOffset": 430680,
      "componentType": 5126,
      "count": 2070,
      "max": [
        0.9847313165664673,
        1.0,
        1.0
      ],
      "min": [
        -0.957103431224823,
        -0.999909520149231,
        -1.0
      ],
      "type": "VEC3"
    },
    {
      "bufferView": 1,
      "byteOffset": 135280,
      "componentType": 5126,
      "count": 2070,
      "max": [
        1.0,
        1.0
      ],
      "min": [
        0.0,
        0.0
      ],
      "type": "VEC2"
    },
    {
      "bufferView": 0,
      "byteOffset": 337872,
      "componentType": 5125,
      "count": 4008,
      "type": "SCALAR"
    }
  ],
  "asset": {
    "extras": {
      "author": "Felipe.Sanches.Alves (https://sketchfab.com/Felipe.Sanches.Alves)",
      "license": "CC-BY-4.0 (http://creativecommons.org/licenses/by/4.0/)",
      "source": "https://sketchfab.com/3d-models/ironman-tony-stark-marvel-3a753e834e7b4b1597667e2fd9c3ed24",
      "title": "IRONMAN - TONY STARK MARVEL"
    },
    "generator": "Sketchfab-13.11.0",
    "version": "2.0"
  },
  "bufferViews": [
    {
      "buffer": 0,
      "byteLength": 353904,
      "name": "floatBufferViews",
      "target": 34963
    },
    {
      "buffer": 0,
      "byteLength": 151840,
      "byteOffset": 353904,
      "byteStride": 8,
      "name": "floatBufferViews",
      "target": 34962
    },
    {
      "buffer": 0,
      "byteLength": 455520,
      "byteOffset": 505744,
      "byteStride": 12,
      "name": "floatBufferViews",
      "target": 34962
    }
  ],
  "buffers": [
    {
      "byteLength": 961264,
      "uri": "scene.bin"
    }
  ],
  "materials": [
    {
      "doubleSided": true,
      "name": "Material",
      "pbrMetallicRoughness": {
        "baseColorFactor": [
          0.19802327142925605,
          0.009853572375318139,
          0.004244254934309564,
          1.0
        ],
        "roughnessFactor": 0.1386670892711292
      }
    },
    {
      "doubleSided": true,
      "name": "Material.006",
      "pbrMetallicRoughness": {
        "baseColorFactor": [
          0.7116212163694212,
          0.25879199550144066,
          0.0,
          1.0
        ],
        "roughnessFactor": 0.18742914264119662
      }
    },
    {
      "doubleSided": true,
      "emissiveFactor": [
        0.18683528620425927,
        1.0,
        1.0
      ],
      "name": "vermelho_oficial",
      "pbrMetallicRoughness": {
        "baseColorFactor": [
          0.0018938029679983655,
          0.013663340062320974,
          0.02128208090829244,
          1.0
        ],
        "roughnessFactor": 0.9913588207118943
      }
    }
  ],
  "meshes": [
    {
      "name": "Cube.001_Material_0",
      "primitives": [
        {
          "attributes": {
            "NORMAL": 1,
            "POSITION": 0,
            "TEXCOORD_0": 2
          },
          "indices": 3,
          "material": 0,
          "mode": 4
        }
      ]
    },
    {
      "name": "Cube.001_Material.006_0",
      "primitives": [
        {
          "attributes": {
            "NORMAL": 5,
            "POSITION": 4,
            "TEXCOORD_0": 6
          },
          "indices": 7,
          "material": 1,
          "mode": 4
        }
      ]
    },
    {
      "name": "Cube.001_vermelho oficial_0",
      "primitives": [
        {
          "attributes": {
            "NORMAL": 9,
            "POSITION": 8,
            "TEXCOORD_0": 10
          },
          "indices": 11,
          "material": 2,
          "mode": 4
        }
      ]
    },
    {
      "name": "Texto_Material_0",
      "primitives": [
        {
          "attributes": {
            "NORMAL": 13,
            "POSITION": 12,
            "TEXCOORD_0": 14
          },
          "indices": 15,
          "material": 0,
          "mode": 4
        }
      ]
    }
  ],
  "nodes": [
    {
      "children": [
        1
      ],
      "matrix": [
        1.0,
        0.0,
        0.0,
        0.0,
        0.0,
        2.220446049250313e-16,
        -1.0,
        0.0,
        0.0,
        1.0,
        2.220446049250313e-16,
        0.0,
        0.0,
        0.0,
        0.0,
        1.0
      ],
      "name": "Sketchfab_model"
    },
    {
      "children": [
        2
      ],
      "matrix": [
        0.009999999776482582,
        0.0,
        0.0,
        0.0,
        0.0,
        0.0,
        0.009999999776482582,
        0.0,
        0.0,
        -0.009999999776482582,
        0.0,
        0.0,
        0.0,
        0.0,
        0.0,
        1.0
      ],
      "name": "112c4e213beb4be18cb827f16732d129.fbx"
    },
    {
      "children": [
        3,
        7,
        10,
        13
      ],
      "name": "RootNode"
    },
    {
      "children": [
        4,
        5,
        6
      ],
      "matrix": [
        8.720059394836426,
        0.0,
        0.0,
        0.0,
        -0.0,
        -1.4206780009438728e-06,
        -8.72005939483631,
        0.0,
        0.0,
        8.72005939483631,
        -1.4206780009438728e-06,
        0.0,
        -171.47132873535156,
        143.67868041992188,
        -81.61003875732422,
        1.0
      ],
      "name": "Cube.001"
    },
    {
      "mesh": 0,
      "name": "Cube.001_Material_0"
    },
    {
      "mesh": 1,
      "name": "Cube.001_Material.006_0"
    },
    {
      "mesh": 2,
      "name": "Cube.001_vermelho oficial_0"
    },
    {
      "children": [
        8
      ],
      "matrix": [
        -29.08647719990347,
        -5.518906457566863,
        -95.51711910171437,
        0.0,
        56.63930913109449,
        79.46723428563203,
        -21.83912397841966,
        0.0,
        77.11008775993375,
        -60.45246356562044,
        -19.98834696773717,
        0.0,
        -209.3777618408203,
        158.36940002441406,
        -50.59834289550781,
        1.0
      ],
      "name": "Light.001"
    },
    {
      "children": [
        9
      ],
      "matrix": [
        1.0,
        0.0,
        0.0,
        0.0,
        0.0,
        2.220446049250313e-16,
        1.0,
        0.0,
        0.0,
        -1.0,
        2.220446049250313e-16,
        0.0,
        0.0,
        0.0,
        0.0,
        1.0
      ],
      "name": "Object_8"
    },
    {
      "name": "Object_9"
    },
    {
      "children": [
        11
      ],
      "matrix": [
        -29.08647719990347,
        -5.518906457566863,
        -95.51711910171437,
        0.0,
        56.63930913109449,
        79.46723428563203,
        -21.83912397841966,
        0.0,
        77.11008775993375,
        -60.45246356562044,
        -19.98834696773717,
        0.0,
        -153.85003662109375,
        158.36940002441406,
        -170.74282836914063,
        1.0
      ],
      "name": "Light.002"
    },
    {
      "children": [
        12
      ],
      "matrix": [
        1.0,
        0.0,
        0.0,
        0.0,
        0.0,
        2.220446049250313e-16,
        1.0,
        0.0,
        0.0,
        -1.0,
        2.220446049250313e-16,
        0.0,
        0.0,
        0.0,
        0.0,
        1.0
      ],
      "name": "Object_11"
    },
    {
      "name": "Object_12"
    },
    {
      "children": [
        14
      ],
      "matrix": [
        51.76099395751953,
        0.0,
        0.0,
        0.0,
        0.0,
        51.76099395751948,
        2.2625450888766232e-06,
        0.0,
        0.0,
        -2.2625450888766232e-06,
        51.76099395751948,
        0.0,
        -256.6053161621094,
        133.82437133789063,
        -180.090576171875,
        1.0
      ],
      "name": "Texto"
    },
    {
      "mesh": 3,
      "name": "Texto_Material_0"
    }
  ],
  "scene": 0,
  "scenes": [
    {
      "name": "Sketchfab_Scene",
      "nodes": [
        0
      ]
    }
  ]
}
