{"accessors" : [{"bufferView" : 0, "byteOffset" : 0, "componentType" : 5123, "count" : 618, "type" : "SCALAR", "max" : [511], "min" : [0]}, {"bufferView" : 1, "byteOffset" : 0, "componentType" : 5126, "count" : 512, "type" : "VEC3", "max" : [0.05182287096977234, 1.744767189025879, 0.10615657269954681], "min" : [0.01267476286739111, 1.7056790590286255, 0.08670014142990112], "name" : "POSITION"}, {"bufferView" : 1, "byteOffset" : 12, "componentType" : 5126, "count" : 512, "type" : "VEC3", "max" : [0.9405931234359741, 0.9512237906455994, 1.0000042915344238], "min" : [-0.9471347332000732, -0.9485123753547668, -1.0000044107437134], "name" : "NORMAL"}, {"bufferView" : 1, "byteOffset" : 24, "componentType" : 5126, "count" : 512, "type" : "VEC2", "max" : [0.9646214246749878, 0.9818061590194702], "min" : [0.019903719425201416, 0.020990610122680664], "name" : "TEXCOORD_0"}, {"bufferView" : 0, "byteOffset" : 1236, "componentType" : 5123, "count" : 618, "type" : "SCALAR", "max" : [514], "min" : [0]}, {"bufferView" : 2, "byteOffset" : 0, "componentType" : 5126, "count" : 515, "type" : "VEC3", "max" : [-0.012949837371706963, 1.7448068857192993, 0.10615663975477219], "min" : [-0.05194231867790222, 1.7056382894515991, 0.0867001935839653], "name" : "POSITION"}, {"bufferView" : 2, "byteOffset" : 12, "componentType" : 5126, "count" : 515, "type" : "VEC3", "max" : [0.9310587048530579, 0.9478596448898315, 1.0000042915344238], "min" : [-0.9491675496101379, -0.9364673495292664, -1.0000044107437134], "name" : "NORMAL"}, {"bufferView" : 2, "byteOffset" : 24, "componentType" : 5126, "count" : 515, "type" : "VEC2", "max" : [0.9585750699043274, 0.966354489326477], "min" : [0.006885886192321777, 0.022762417793273926], "name" : "TEXCOORD_0"}, {"bufferView" : 0, "byteOffset" : 2472, "componentType" : 5123, "count" : 12282, "type" : "SCALAR", "max" : [9713], "min" : [0]}, {"bufferView" : 3, "byteOffset" : 0, "componentType" : 5126, "count" : 9714, "type" : "VEC3", "max" : [0.09579432010650635, 1.8330841064453125, 0.14138853549957275], "min" : [-0.09610731154680252, 1.5206059217453003, -0.0865776538848877], "name" : "POSITION"}, {"bufferView" : 3, "byteOffset" : 12, "componentType" : 5126, "count" : 9714, "type" : "VEC3", "max" : [0.9992212057113647, 0.9998701810836792, 0.9999849200248718], "min" : [-0.9992178082466125, -0.9999943971633911, -0.9999960660934448], "name" : "NORMAL"}, {"bufferView" : 3, "byteOffset" : 24, "componentType" : 5126, "count" : 9714, "type" : "VEC2", "max" : [0.9943000078201294, 0.9807000160217285], "min" : [0.004999999888241291, 0.004350006580352783], "name" : "TEXCOORD_0"}, {"bufferView" : 0, "byteOffset" : 27036, "componentType" : 5123, "count" : 300, "type" : "SCALAR", "max" : [238], "min" : [0]}, {"bufferView" : 4, "byteOffset" : 0, "componentType" : 5126, "count" : 239, "type" : "VEC3", "max" : [0.028020206838846207, 1.6793153285980225, 0.12029867619276047], "min" : [-0.028020206838846207, 1.6440503597259521, 0.05338511988520622], "name" : "POSITION"}, {"bufferView" : 4, "byteOffset" : 12, "componentType" : 5126, "count" : 239, "type" : "VEC3", "max" : [0.9971848130226135, 0.8770292401313782, 0.9974733591079712], "min" : [-0.9971846342086792, -0.9858387112617493, -0.7650244832038879], "name" : "NORMAL"}, {"bufferView" : 4, "byteOffset" : 24, "componentType" : 5126, "count" : 239, "type" : "VEC2", "max" : [0.9808249473571777, 0.983213484287262], "min" : [0.051069796085357666, 0.02829587459564209], "name" : "TEXCOORD_0"}, {"bufferView" : 0, "byteOffset" : 27636, "componentType" : 5123, "count" : 6534, "type" : "SCALAR", "max" : [5213], "min" : [0]}, {"bufferView" : 5, "byteOffset" : 0, "componentType" : 5126, "count" : 5214, "type" : "VEC3", "max" : [0.5314635038375854, 1.3983039855957031, 0.1485920548439026], "min" : [-0.5314706563949585, 0.06424238532781601, -0.11516430974006653], "name" : "POSITION"}, {"bufferView" : 5, "byteOffset" : 12, "componentType" : 5126, "count" : 5214, "type" : "VEC3", "max" : [0.9990520477294922, 0.8005260229110718, 0.9985252618789673], "min" : [-0.9990518093109131, -0.9900036454200745, -0.993008553981781], "name" : "NORMAL"}, {"bufferView" : 5, "byteOffset" : 24, "componentType" : 5126, "count" : 5214, "type" : "VEC4", "max" : [0.9997000694274902, 0.9990327954292297, 0.9992393255233765, 0], "min" : [-0.996497631072998, -0.9887887835502625, -0.9998924732208252, 0], "name" : "TANGENT"}, {"bufferView" : 5, "byteOffset" : 40, "componentType" : 5126, "count" : 5214, "type" : "VEC2", "max" : [0.9857610464096069, 0.9892195463180542], "min" : [0.018731044605374336, 0.010335981845855713], "name" : "TEXCOORD_0"}, {"bufferView" : 0, "byteOffset" : 40704, "componentType" : 5123, "count" : 3183, "type" : "SCALAR", "max" : [2585], "min" : [0]}, {"bufferView" : 6, "byteOffset" : 0, "componentType" : 5126, "count" : 2586, "type" : "VEC3", "max" : [0.19669479131698608, 1.0734764337539673, 0.1259719282388687], "min" : [-0.1960141658782959, 0.19393502175807953, -0.12367139011621475], "name" : "POSITION"}, {"bufferView" : 6, "byteOffset" : 12, "componentType" : 5126, "count" : 2586, "type" : "VEC3", "max" : [0.9999282360076904, 0.6566427946090698, 0.9998634457588196], "min" : [-0.9999285936355591, -0.9999528527259827, -0.9999936819076538], "name" : "NORMAL"}, {"bufferView" : 6, "byteOffset" : 24, "componentType" : 5126, "count" : 2586, "type" : "VEC4", "max" : [0.9999927282333374, 0.6242111325263977, 1.0000022649765015, 0], "min" : [-0.9939440488815308, -0.5761536955833435, -1.000002145767212, 0], "name" : "TANGENT"}, {"bufferView" : 6, "byteOffset" : 40, "componentType" : 5126, "count" : 2586, "type" : "VEC2", "max" : [0.9872713088989258, 0.9939693808555603], "min" : [0.015709467232227325, 0.09439772367477417], "name" : "TEXCOORD_0"}, {"bufferView" : 0, "byteOffset" : 47072, "componentType" : 5123, "count" : 3966, "type" : "SCALAR", "max" : [3182], "min" : [0]}, {"bufferView" : 7, "byteOffset" : 0, "componentType" : 5126, "count" : 3183, "type" : "VEC3", "max" : [0.237034872174263, 0.18304972350597382, 0.24138133227825165], "min" : [-0.2370404154062271, 0.0007632964407093823, -0.1295623481273651], "name" : "POSITION"}, {"bufferView" : 7, "byteOffset" : 12, "componentType" : 5126, "count" : 3183, "type" : "VEC3", "max" : [0.9999169111251831, 0.9974511861801147, 0.994997501373291], "min" : [-0.9999165534973145, -1.0000044107437134, -0.9961780905723572], "name" : "NORMAL"}, {"bufferView" : 7, "byteOffset" : 24, "componentType" : 5126, "count" : 3183, "type" : "VEC4", "max" : [0.9999468326568604, 0.895574688911438, 0.9980344176292419, 0], "min" : [-0.9993342757225037, -0.9999600648880005, -0.9223743081092834, 0], "name" : "TANGENT"}, {"bufferView" : 7, "byteOffset" : 40, "componentType" : 5126, "count" : 3183, "type" : "VEC2", "max" : [0.9763879776000977, 0.9864959716796875], "min" : [0.009003999643027782, 0.012317001819610596], "name" : "TEXCOORD_0"}, {"bufferView" : 0, "byteOffset" : 55004, "componentType" : 5123, "count" : 3612, "type" : "SCALAR", "max" : [2919], "min" : [0]}, {"bufferView" : 8, "byteOffset" : 0, "componentType" : 5126, "count" : 2920, "type" : "VEC3", "max" : [0.2985963225364685, 1.6127055883407593, 0.14255209267139435], "min" : [-0.29859641194343567, 0.9743638634681702, -0.13961683213710785], "name" : "POSITION"}, {"bufferView" : 8, "byteOffset" : 12, "componentType" : 5126, "count" : 2920, "type" : "VEC3", "max" : [0.9997857213020325, 0.9320359230041504, 0.9999990463256836], "min" : [-0.999785304069519, -0.9939429759979248, -0.9998593926429749], "name" : "NORMAL"}, {"bufferView" : 8, "byteOffset" : 24, "componentType" : 5126, "count" : 2920, "type" : "VEC4", "max" : [1.0000042915344238, 0.8987699747085571, 0.9999897480010986, 0], "min" : [-1.0000025033950806, -0.7702816128730774, -0.9991936087608337, 0], "name" : "TANGENT"}, {"bufferView" : 8, "byteOffset" : 40, "componentType" : 5126, "count" : 2920, "type" : "VEC2", "max" : [0.9732422232627869, 0.9698548913002014], "min" : [0.01714695617556572, 0.03683871030807495], "name" : "TEXCOORD_0"}, {"bufferView" : 0, "byteOffset" : 62228, "componentType" : 5123, "count" : 3609, "type" : "SCALAR", "max" : [3043], "min" : [0]}, {"bufferView" : 9, "byteOffset" : 0, "componentType" : 5126, "count" : 3044, "type" : "VEC3", "max" : [0.09775179624557495, 1.863134741783142, 0.14080436527729034], "min" : [-0.10739278793334961, 1.6298915147781372, -0.08866449445486069], "name" : "POSITION"}, {"bufferView" : 9, "byteOffset" : 12, "componentType" : 5126, "count" : 3044, "type" : "VEC3", "max" : [0.9979795813560486, 0.9981088638305664, 0.9981746077537537], "min" : [-0.9975363612174988, -0.9987674951553345, -0.9923242330551147], "name" : "NORMAL"}, {"bufferView" : 9, "byteOffset" : 24, "componentType" : 5126, "count" : 3044, "type" : "VEC2", "max" : [0.9965007305145264, 0.9753868579864502], "min" : [0, 0.016377270221710205], "name" : "TEXCOORD_0"}, {"bufferView" : 0, "byteOffset" : 69448, "componentType" : 5123, "count" : 1617, "type" : "SCALAR", "max" : [1305], "min" : [0]}, {"bufferView" : 10, "byteOffset" : 0, "componentType" : 5126, "count" : 1306, "type" : "VEC3", "max" : [0.08335842192173004, 1.734937071800232, 0.13474410772323608], "min" : [-0.0829189270734787, 1.5757951736450195, 0.025957560166716576], "name" : "POSITION"}, {"bufferView" : 10, "byteOffset" : 12, "componentType" : 5126, "count" : 1306, "type" : "VEC3", "max" : [0.9905605316162109, 0.9715369939804077, 0.9965773820877075], "min" : [-0.9931468367576599, -0.9952331781387329, -0.9958286881446838], "name" : "NORMAL"}, {"bufferView" : 10, "byteOffset" : 24, "componentType" : 5126, "count" : 1306, "type" : "VEC2", "max" : [0.8070516586303711, 0.9875178337097168], "min" : [0.04707375168800354, 0.012144744396209717], "name" : "TEXCOORD_0"}], "asset" : {"generator" : "Aspose.3D 23.2", "version" : "2.0"}, "buffers" : [{"uri" : "data:application/octet-stream;base64,", "byteLength" : 1512296}], "bufferViews" : [{"buffer" : 0, "byteOffset" : 0, "byteLength" : 72684, "target" : 34963}, {"buffer" : 0, "byteOffset" : 72688, "byteLength" : 19776, "byteStride" : 32, "target" : 34962}, {"buffer" : 0, "byteOffset" : 92468, "byteLength" : 19776, "byteStride" : 32, "target" : 34962}, {"buffer" : 0, "byteOffset" : 112248, "byteLength" : 393024, "byteStride" : 32, "target" : 34962}, {"buffer" : 0, "byteOffset" : 505276, "byteLength" : 9600, "byteStride" : 32, "target" : 34962}, {"buffer" : 0, "byteOffset" : 514880, "byteLength" : 313632, "byteStride" : 48, "target" : 34962}, {"buffer" : 0, "byteOffset" : 828516, "byteLength" : 152784, "byteStride" : 48, "target" : 34962}, {"buffer" : 0, "byteOffset" : 981304, "byteLength" : 190368, "byteStride" : 48, "target" : 34962}, {"buffer" : 0, "byteOffset" : 1171676, "byteLength" : 173376, "byteStride" : 48, "target" : 34962}, {"buffer" : 0, "byteOffset" : 1345056, "byteLength" : 115488, "byteStride" : 32, "target" : 34962}, {"buffer" : 0, "byteOffset" : 1460548, "byteLength" : 51744, "byteStride" : 32, "target" : 34962}], "images" : [{"uri" : "data:image/jpeg;base64,"}, {"uri" : "data:image/jpeg;base64,"}, {"uri" : "data:image/jpeg;base64,"}, {"uri" : "data:image/jpeg;base64,"}, {"uri" : "data:image/png;base64,"}, {"uri" : "data:image/jpeg;base64,"}, {"uri" : "data:image/jpeg;base64,"}, {"uri" : "data:image/jpeg;base64,"}, {"uri" : "data:image/jpeg;base64,"}, {"uri" : "data:image/jpeg;base64,"}, {"uri" : "data:image/jpeg;base64,"}, {"uri" : "data:image/jpeg;base64,"}, {"uri" : "data:image/jpeg;base64,"}, {"uri" : "data:image/jpeg;base64,"}, {"uri" : "data:image/png;base64,"}, {"uri" : "data:image/jpeg;base64,"}], "materials" : [{"name" : "Wolf3D_Eye", "pbrMetallicRoughness" : {"baseColorFactor" : [1, 1, 1, 1], "baseColorTexture" : {"index" : 0, "texCoord" : 0}, "metallicFactor" : 0, "roughnessFactor" : 1}, "emissiveFactor" : [0, 0, 0], "alphaMode" : "OPAQUE", "doubleSided" : true}, {"name" : "Wolf3D_Eye", "pbrMetallicRoughness" : {"baseColorFactor" : [1, 1, 1, 1], "baseColorTexture" : {"index" : 0, "texCoord" : 0}, "metallicFactor" : 0, "roughnessFactor" : 1}, "emissiveFactor" : [0, 0, 0], "alphaMode" : "OPAQUE", "doubleSided" : true}, {"name" : "Wolf3D_Skin", "pbrMetallicRoughness" : {"baseColorFactor" : [1, 1, 1, 1], "baseColorTexture" : {"index" : 1, "texCoord" : 0}, "metallicFactor" : 0, "roughnessFactor" : 0.699999988079071}, "emissiveFactor" : [0, 0, 0], "alphaMode" : "OPAQUE", "doubleSided" : true}, {"name" : "Wolf3D_Teeth", "pbrMetallicRoughness" : {"baseColorFactor" : [1, 1, 1, 1], "baseColorTexture" : {"index" : 2, "texCoord" : 0}, "metallicFactor" : 0, "roughnessFactor" : 1}, "emissiveFactor" : [0, 0, 0], "alphaMode" : "OPAQUE", "doubleSided" : true}, {"name" : "Wolf3D_Body", "pbrMetallicRoughness" : {"baseColorFactor" : [1, 1, 1, 1], "baseColorTexture" : {"index" : 4, "texCoord" : 0}, "metallicFactor" : 0, "roughnessFactor" : 0.6982409358024597}, "normalTexture" : {"index" : 3, "texCoord" : 0, "scale" : 1}, "emissiveFactor" : [0, 0, 0], "alphaMode" : "OPAQUE", "doubleSided" : false}, {"name" : "Wolf3D_Outfit_Bottom", "pbrMetallicRoughness" : {"baseColorFactor" : [1, 1, 1, 1], "baseColorTexture" : {"index" : 6, "texCoord" : 0}, "metallicFactor" : 0, "roughnessFactor" : 1, "metallicRoughnessTexture" : {"index" : 7, "texCoord" : 0}}, "normalTexture" : {"index" : 5, "texCoord" : 0, "scale" : 1}, "emissiveFactor" : [0, 0, 0], "alphaMode" : "OPAQUE", "doubleSided" : false}, {"name" : "Wolf3D_Outfit_Footwear", "pbrMetallicRoughness" : {"baseColorFactor" : [1, 1, 1, 1], "baseColorTexture" : {"index" : 9, "texCoord" : 0}, "metallicFactor" : 1, "roughnessFactor" : 1, "metallicRoughnessTexture" : {"index" : 10, "texCoord" : 0}}, "normalTexture" : {"index" : 8, "texCoord" : 0, "scale" : 1}, "emissiveFactor" : [0, 0, 0], "alphaMode" : "OPAQUE", "doubleSided" : false}, {"name" : "Wolf3D_Outfit_Top", "pbrMetallicRoughness" : {"baseColorFactor" : [1, 1, 1, 1], "baseColorTexture" : {"index" : 12, "texCoord" : 0}, "metallicFactor" : 0, "roughnessFactor" : 0.8045454621315002}, "normalTexture" : {"index" : 11, "texCoord" : 0, "scale" : 1}, "emissiveFactor" : [0, 0, 0], "alphaMode" : "OPAQUE", "doubleSided" : false}, {"name" : "Wolf3D_Hair", "pbrMetallicRoughness" : {"baseColorFactor" : [1, 1, 1, 1], "baseColorTexture" : {"index" : 14, "texCoord" : 0}, "metallicFactor" : 0, "roughnessFactor" : 0.8434659242630005}, "normalTexture" : {"index" : 13, "texCoord" : 0, "scale" : 1}, "emissiveFactor" : [0, 0, 0], "alphaMode" : "OPAQUE", "doubleSided" : false}, {"name" : "Wolf3D_Beard", "pbrMetallicRoughness" : {"baseColorFactor" : [1, 1, 1, 1], "baseColorTexture" : {"index" : 14, "texCoord" : 0}, "metallicFactor" : 0.12727272510528564, "roughnessFactor" : 0.531818151473999}, "normalTexture" : {"index" : 15, "texCoord" : 0, "scale" : 1}, "emissiveFactor" : [0, 0, 0], "alphaMode" : "OPAQUE", "doubleSided" : false}], "meshes" : [{"primitives" : [{"attributes" : {"POSITION" : 1, "NORMAL" : 2, "TEXCOORD_0" : 3}, "indices" : 0, "material" : 0, "mode" : 4}]}, {"primitives" : [{"attributes" : {"POSITION" : 5, "NORMAL" : 6, "TEXCOORD_0" : 7}, "indices" : 4, "material" : 1, "mode" : 4}]}, {"primitives" : [{"attributes" : {"POSITION" : 9, "NORMAL" : 10, "TEXCOORD_0" : 11}, "indices" : 8, "material" : 2, "mode" : 4}]}, {"primitives" : [{"attributes" : {"POSITION" : 13, "NORMAL" : 14, "TEXCOORD_0" : 15}, "indices" : 12, "material" : 3, "mode" : 4}]}, {"primitives" : [{"attributes" : {"POSITION" : 17, "NORMAL" : 18, "TANGENT" : 19, "TEXCOORD_0" : 20}, "indices" : 16, "material" : 4, "mode" : 4}]}, {"primitives" : [{"attributes" : {"POSITION" : 22, "NORMAL" : 23, "TANGENT" : 24, "TEXCOORD_0" : 25}, "indices" : 21, "material" : 5, "mode" : 4}]}, {"primitives" : [{"attributes" : {"POSITION" : 27, "NORMAL" : 28, "TANGENT" : 29, "TEXCOORD_0" : 30}, "indices" : 26, "material" : 6, "mode" : 4}]}, {"primitives" : [{"attributes" : {"POSITION" : 32, "NORMAL" : 33, "TANGENT" : 34, "TEXCOORD_0" : 35}, "indices" : 31, "material" : 7, "mode" : 4}]}, {"primitives" : [{"attributes" : {"POSITION" : 37, "NORMAL" : 38, "TEXCOORD_0" : 39}, "indices" : 36, "material" : 8, "mode" : 4}]}, {"primitives" : [{"attributes" : {"POSITION" : 41, "NORMAL" : 42, "TEXCOORD_0" : 43}, "indices" : 40, "material" : 9, "mode" : 4}]}], "nodes" : [{"mesh" : 0, "name" : "EyeLeft"}, {"mesh" : 1, "name" : "EyeRight"}, {"mesh" : 2, "name" : "Wolf3D_Head"}, {"mesh" : 3, "name" : "Wolf3D_Teeth"}, {"mesh" : 4, "name" : "Wolf3D_Body"}, {"mesh" : 5, "name" : "Wolf3D_Outfit_Bottom"}, {"mesh" : 6, "name" : "Wolf3D_Outfit_Footwear"}, {"mesh" : 7, "name" : "Wolf3D_Outfit_Top"}, {"mesh" : 8, "name" : "Wolf3D_Hair"}, {"mesh" : 9, "name" : "Wolf3D_Beard"}, {"children" : [0, 1, 2, 3, 4, 5, 6, 7, 8, 9], "name" : "Armature"}], "samplers" : [{"magFilter" : 9728, "minFilter" : 9728, "wrapS" : 10497, "wrapT" : 10497}, {"magFilter" : 9728, "minFilter" : 9728, "wrapS" : 10497, "wrapT" : 10497}, {"magFilter" : 9729, "minFilter" : 9987, "wrapS" : 10497, "wrapT" : 10497}, {"magFilter" : 9729, "minFilter" : 9987, "wrapS" : 10497, "wrapT" : 10497}, {"magFilter" : 9728, "minFilter" : 9728, "wrapS" : 10497, "wrapT" : 10497}, {"magFilter" : 9729, "minFilter" : 9987, "wrapS" : 10497, "wrapT" : 10497}, {"magFilter" : 9729, "minFilter" : 9987, "wrapS" : 10497, "wrapT" : 10497}, {"magFilter" : 9729, "minFilter" : 9987, "wrapS" : 10497, "wrapT" : 10497}, {"magFilter" : 9729, "minFilter" : 9987, "wrapS" : 10497, "wrapT" : 10497}, {"magFilter" : 9729, "minFilter" : 9987, "wrapS" : 10497, "wrapT" : 10497}, {"magFilter" : 9729, "minFilter" : 9987, "wrapS" : 10497, "wrapT" : 10497}, {"magFilter" : 9729, "minFilter" : 9987, "wrapS" : 10497, "wrapT" : 10497}, {"magFilter" : 9729, "minFilter" : 9987, "wrapS" : 10497, "wrapT" : 10497}, {"magFilter" : 9729, "minFilter" : 9987, "wrapS" : 10497, "wrapT" : 10497}, {"magFilter" : 9728, "minFilter" : 9728, "wrapS" : 10497, "wrapT" : 10497}, {"magFilter" : 9729, "minFilter" : 9987, "wrapS" : 10497, "wrapT" : 10497}], "scene" : 0, "scenes" : [{"nodes" : [10]}], "textures" : [{"sampler" : 0, "source" : 0, "name" : ""}, {"sampler" : 1, "source" : 1, "name" : ""}, {"sampler" : 2, "source" : 2, "name" : ""}, {"sampler" : 3, "source" : 3, "name" : ""}, {"sampler" : 4, "source" : 4, "name" : ""}, {"sampler" : 5, "source" : 5, "name" : ""}, {"sampler" : 6, "source" : 6, "name" : ""}, {"sampler" : 7, "source" : 7, "name" : ""}, {"sampler" : 8, "source" : 8, "name" : ""}, {"sampler" : 9, "source" : 9, "name" : ""}, {"sampler" : 10, "source" : 10, "name" : ""}, {"sampler" : 11, "source" : 11, "name" : ""}, {"sampler" : 12, "source" : 12, "name" : ""}, {"sampler" : 13, "source" : 13, "name" : ""}, {"sampler" : 14, "source" : 14, "name" : ""}, {"sampler" : 15, "source" : 15, "name" : ""}]}