{
  "accessors": [
    {
      "bufferView": 2,
      "componentType": 5126,
      "count": 9136,
      "max": [
        526.2568969726563,
        353.90557861328125,
        222.0
      ],
      "min": [
        -703.7431030273438,
        -345.50982666015625,
        -5.258016244624741e-13
      ],
      "type": "VEC3"
    },
    {
      "bufferView": 2,
      "byteOffset": 109632,
      "componentType": 5126,
      "count": 9136,
      "max": [
        1.0,
        1.0,
        1.0
      ],
      "min": [
        -1.0,
        -1.0,
        -1.0
      ],
      "type": "VEC3"
    },
    {
      "bufferView": 3,
      "componentType": 5126,
      "count": 9136,
      "max": [
        1.0,
        1.0,
        1.0,
        1.0
      ],
      "min": [
        -1.0,
        -1.0,
        -1.0,
        -1.0
      ],
      "type": "VEC4"
    },
    {
      "bufferView": 1,
      "componentType": 5126,
      "count": 9136,
      "max": [
        1.3333330154418945,
        34.16667175292969
      ],
      "min": [
        -0.6666666865348816,
        -2.266587018966675
      ],
      "type": "VEC2"
    },
    {
      "bufferView": 0,
      "componentType": 5125,
      "count": 14214,
      "type": "SCALAR"
    },
    {
      "bufferView": 2,
      "byteOffset": 219264,
      "componentType": 5126,
      "count": 1232,
      "max": [
        528.2568969726563,
        353.90557861328125,
        222.0
      ],
      "min": [
        -705.7431030273438,
        -345.50982666015625,
        0.0
      ],
      "type": "VEC3"
    },
    {
      "bufferView": 2,
      "byteOffset": 234048,
      "componentType": 5126,
      "count": 1232,
      "max": [
        1.0,
        1.0,
        1.0
      ],
      "min": [
        -1.0,
        -1.0,
        -1.0
      ],
      "type": "VEC3"
    },
    {
      "bufferView": 3,
      "byteOffset": 146176,
      "componentType": 5126,
      "count": 1232,
      "max": [
        1.0,
        1.0,
        2.23510282616763e-31,
        1.0
      ],
      "min": [
        -5.662128849379707e-16,
        -1.0,
        -1.5435665031911102e-17,
        -1.0
      ],
      "type": "VEC4"
    },
    {
      "bufferView": 1,
      "byteOffset": 73088,
      "componentType": 5126,
      "count": 1232,
      "max": [
        9.127869606018066,
        14.333330154418945
      ],
      "min": [
        -6.326088012941844e-15,
        0.0
      ],
      "type": "VEC2"
    },
    {
      "bufferView": 0,
      "byteOffset": 56856,
      "componentType": 5125,
      "count": 1848,
      "type": "SCALAR"
    },
    {
      "bufferView": 2,
      "byteOffset": 248832,
      "componentType": 5126,
      "count": 320,
      "max": [
        322.25689697265625,
        175.51319885253906,
        144.0
      ],
      "min": [
        -499.74310302734375,
        -167.11749267578125,
        0.0
      ],
      "type": "VEC3"
    },
    {
      "bufferView": 2,
      "byteOffset": 252672,
      "componentType": 5126,
      "count": 320,
      "max": [
        1.0,
        1.0,
        0.0
      ],
      "min": [
        -1.0,
        -1.0,
        0.0
      ],
      "type": "VEC3"
    },
    {
      "bufferView": 3,
      "byteOffset": 165888,
      "componentType": 5126,
      "count": 320,
      "max": [
        1.0,
        1.0,
        0.0,
        1.0
      ],
      "min": [
        -1.0,
        -1.0,
        0.0,
        -1.0
      ],
      "type": "VEC4"
    },
    {
      "bufferView": 1,
      "byteOffset": 82944,
      "componentType": 5126,
      "count": 320,
      "max": [
        1.3333330154418945,
        4.0
      ],
      "min": [
        0.0,
        0.0
      ],
      "type": "VEC2"
    },
    {
      "bufferView": 0,
      "byteOffset": 64248,
      "componentType": 5125,
      "count": 480,
      "type": "SCALAR"
    },
    {
      "bufferView": 2,
      "byteOffset": 256512,
      "componentType": 5126,
      "count": 2016,
      "max": [
        742.6958618164063,
        387.99407958984375,
        317.8340148925781
      ],
      "min": [
        448.588134765625,
        -400.02081298828125,
        -63.25593185424805
      ],
      "type": "VEC3"
    },
    {
      "bufferView": 2,
      "byteOffset": 280704,
      "componentType": 5126,
      "count": 2016,
      "max": [
        0.9957315325737,
        0.8296970129013062,
        0.6585467457771301
      ],
      "min": [
        -0.9957315325737,
        -0.8296970129013062,
        -0.6585467457771301
      ],
      "type": "VEC3"
    },
    {
      "bufferView": 1,
      "byteOffset": 85504,
      "componentType": 5126,
      "count": 2016,
      "max": [
        1.2408349514007568,
        1.0086499452590942
      ],
      "min": [
        -0.22404299676418304,
        0.15413810312747955
      ],
      "type": "VEC2"
    },
    {
      "bufferView": 0,
      "byteOffset": 66168,
      "componentType": 5125,
      "count": 5376,
      "type": "SCALAR"
    },
    {
      "bufferView": 2,
      "byteOffset": 304896,
      "componentType": 5126,
      "count": 20,
      "max": [
        577.1318969726563,
        353.9054870605469,
        2.4462473980146378e-20
      ],
      "min": [
        -703.7431030273438,
        -345.5097961425781,
        -5.258016244624741e-13
      ],
      "type": "VEC3"
    },
    {
      "bufferView": 2,
      "byteOffset": 305136,
      "componentType": 5126,
      "count": 20,
      "max": [
        5.027918965232799e-15,
        7.465628753695604e-16,
        1.0
      ],
      "min": [
        -5.027918965232799e-15,
        -7.465628753695604e-16,
        -1.0
      ],
      "type": "VEC3"
    },
    {
      "bufferView": 3,
      "byteOffset": 171008,
      "componentType": 5126,
      "count": 20,
      "max": [
        1.0,
        1.1841280667113097e-07,
        5.027918965232799e-15,
        1.0
      ],
      "min": [
        1.0,
        -3.082611854665629e-08,
        -1.0975860871455104e-16,
        -1.0
      ],
      "type": "VEC4"
    },
    {
      "bufferView": 1,
      "byteOffset": 101632,
      "componentType": 5126,
      "count": 20,
      "max": [
        6.164784908294678,
        3.1439809799194336
      ],
      "min": [
        0.1469999998807907,
        -0.1420000046491623
      ],
      "type": "VEC2"
    },
    {
      "bufferView": 0,
      "byteOffset": 87672,
      "componentType": 5125,
      "count": 36,
      "type": "SCALAR"
    },
    {
      "bufferView": 2,
      "byteOffset": 305376,
      "componentType": 5126,
      "count": 890,
      "max": [
        528.2568969726563,
        355.9054870605469,
        224.0
      ],
      "min": [
        -705.7431030273438,
        -347.5097961425781,
        -5.684341886080802e-14
      ],
      "type": "VEC3"
    },
    {
      "bufferView": 2,
      "byteOffset": 316056,
      "componentType": 5126,
      "count": 890,
      "max": [
        1.0,
        1.0,
        1.0
      ],
      "min": [
        -1.0,
        -1.0,
        -1.0
      ],
      "type": "VEC3"
    },
    {
      "bufferView": 0,
      "byteOffset": 87816,
      "componentType": 5125,
      "count": 1848,
      "type": "SCALAR"
    },
    {
      "bufferView": 2,
      "byteOffset": 326736,
      "componentType": 5126,
      "count": 11514,
      "max": [
        526.2568969726563,
        353.9054870605469,
        216.0
      ],
      "min": [
        -703.7431030273438,
        -345.5097961425781,
        8.0
      ],
      "type": "VEC3"
    },
    {
      "bufferView": 2,
      "byteOffset": 464904,
      "componentType": 5126,
      "count": 11514,
      "max": [
        1.0,
        1.0,
        1.0
      ],
      "min": [
        -1.0,
        -1.0,
        -1.0
      ],
      "type": "VEC3"
    },
    {
      "bufferView": 1,
      "byteOffset": 101792,
      "componentType": 5126,
      "count": 11514,
      "max": [
        6.821152210235596,
        0.18489579856395721
      ],
      "min": [
        -3.1412389278411865,
        -0.1015625
      ],
      "type": "VEC2"
    },
    {
      "bufferView": 0,
      "byteOffset": 95208,
      "componentType": 5125,
      "count": 20178,
      "type": "SCALAR"
    },
    {
      "bufferView": 2,
      "byteOffset": 603072,
      "componentType": 5126,
      "count": 28,
      "max": [
        526.2568969726563,
        4.197902679443359,
        216.0
      ],
      "min": [
        -703.7431030273438,
        4.197902679443359,
        216.0
      ],
      "type": "VEC3"
    },
    {
      "bufferView": 0,
      "byteOffset": 175920,
      "componentType": 5125,
      "count": 28,
      "type": "SCALAR"
    },
    {
      "bufferView": 2,
      "byteOffset": 603408,
      "componentType": 5126,
      "count": 112,
      "max": [
        526.2568969726563,
        93.55168914794922,
        212.0
      ],
      "min": [
        -703.7431030273438,
        -85.15597534179688,
        182.3094024658203
      ],
      "type": "VEC3"
    },
    {
      "bufferView": 2,
      "byteOffset": 604752,
      "componentType": 5126,
      "count": 112,
      "max": [
        0.0,
        0.5,
        -0.8660253882408142
      ],
      "min": [
        0.0,
        -0.5,
        -0.8660253882408142
      ],
      "type": "VEC3"
    },
    {
      "bufferView": 0,
      "byteOffset": 176032,
      "componentType": 5125,
      "count": 168,
      "type": "SCALAR"
    }
  ],
  "asset": {
    "extras": {
      "author": "jimbogies (https://sketchfab.com/jimbogies)",
      "license": "CC-BY-4.0 (http://creativecommons.org/licenses/by/4.0/)",
      "source": "https://sketchfab.com/3d-models/commercial-storage-garage-be900436459c4df1a05a2430595711cc",
      "title": "Commercial Storage Garage"
    },
    "generator": "Sketchfab-15.10.0",
    "version": "2.0"
  },
  "bufferViews": [
    {
      "buffer": 0,
      "byteLength": 176704,
      "name": "floatBufferViews",
      "target": 34963
    },
    {
      "buffer": 0,
      "byteLength": 193904,
      "byteOffset": 176704,
      "byteStride": 8,
      "name": "floatBufferViews",
      "target": 34962
    },
    {
      "buffer": 0,
      "byteLength": 606096,
      "byteOffset": 370608,
      "byteStride": 12,
      "name": "floatBufferViews",
      "target": 34962
    },
    {
      "buffer": 0,
      "byteLength": 171328,
      "byteOffset": 976704,
      "byteStride": 16,
      "name": "floatBufferViews",
      "target": 34962
    }
  ],
  "buffers": [
    {
      "byteLength": 1148032,
      "uri": "scene.bin"
    }
  ],
  "images": [
    {
      "uri": "textures/Gerder01_baseColor.png"
    },
    {
      "uri": "textures/Gerder01_metallicRoughness.png"
    },
    {
      "uri": "textures/Gerder01_normal.png"
    },
    {
      "uri": "textures/Panel01_baseColor.jpeg"
    },
    {
      "uri": "textures/Panel01_metallicRoughness.png"
    },
    {
      "uri": "textures/Panel01_normal.jpeg"
    },
    {
      "uri": "textures/Gerder02_baseColor.jpeg"
    },
    {
      "uri": "textures/Gerder02_metallicRoughness.png"
    },
    {
      "uri": "textures/Gerder02_normal.jpeg"
    },
    {
      "uri": "textures/Dump_Truck_baseColor.jpeg"
    },
    {
      "uri": "textures/Concrete02_Albedo_baseColor.jpeg"
    },
    {
      "uri": "textures/Concrete02_Albedo_metallicRoughness.png"
    },
    {
      "uri": "textures/Concrete02_Albedo_normal.png"
    },
    {
      "uri": "textures/Color_Diffuse_baseColor.jpeg"
    },
    {
      "uri": "textures/Color_Diffuse_metallicRoughness.png"
    }
  ],
  "materials": [
    {
      "alphaCutoff": 0.059428752544769654,
      "alphaMode": "MASK",
      "name": "Gerder01",
      "normalTexture": {
        "index": 2
      },
      "pbrMetallicRoughness": {
        "baseColorTexture": {
          "index": 0
        },
        "metallicFactor": 0.17523862929867975,
        "metallicRoughnessTexture": {
          "index": 1
        },
        "roughnessFactor": 0.693335446355646
      }
    },
    {
      "name": "Panel01",
      "normalTexture": {
        "index": 5
      },
      "pbrMetallicRoughness": {
        "baseColorTexture": {
          "index": 3
        },
        "metallicFactor": 0.37638209945020784,
        "metallicRoughnessTexture": {
          "index": 4
        },
        "roughnessFactor": 0.7299069863831965
      }
    },
    {
      "name": "Gerder02",
      "normalTexture": {
        "index": 8
      },
      "pbrMetallicRoughness": {
        "baseColorTexture": {
          "index": 6
        },
        "metallicFactor": 0.22400068266874718,
        "metallicRoughnessTexture": {
          "index": 7
        },
        "roughnessFactor": 0.7238117297119381
      }
    },
    {
      "emissiveFactor": [
        0.6552400921602808,
        0.6552400921602808,
        0.6552400921602808
      ],
      "emissiveTexture": {
        "index": 9
      },
      "name": "Dump_Truck",
      "pbrMetallicRoughness": {
        "baseColorTexture": {
          "index": 9
        },
        "metallicFactor": 0.0,
        "roughnessFactor": 0.6
      }
    },
    {
      "name": "Concrete02_Albedo",
      "normalTexture": {
        "index": 12
      },
      "pbrMetallicRoughness": {
        "baseColorTexture": {
          "index": 10
        },
        "metallicFactor": 0.0,
        "metallicRoughnessTexture": {
          "index": 11
        }
      }
    },
    {
      "name": "Blackout",
      "pbrMetallicRoughness": {
        "baseColorFactor": [
          0.0,
          0.0,
          0.0,
          1.0
        ],
        "metallicFactor": 0.0,
        "roughnessFactor": 0.6
      }
    },
    {
      "name": "Color_Diffuse",
      "pbrMetallicRoughness": {
        "baseColorTexture": {
          "index": 13
        },
        "metallicFactor": 0.29104850605258986,
        "metallicRoughnessTexture": {
          "index": 14
        },
        "roughnessFactor": 0.9005741731784325
      }
    },
    {
      "name": "edge_color000255",
      "pbrMetallicRoughness": {
        "metallicFactor": 0.0,
        "roughnessFactor": 0.6
      }
    },
    {
      "name": "material",
      "pbrMetallicRoughness": {
        "metallicFactor": 0.0,
        "roughnessFactor": 0.6
      }
    }
  ],
  "meshes": [
    {
      "name": "Material2",
      "primitives": [
        {
          "attributes": {
            "NORMAL": 1,
            "POSITION": 0,
            "TANGENT": 2,
            "TEXCOORD_0": 3
          },
          "indices": 4,
          "material": 0,
          "mode": 4
        }
      ]
    },
    {
      "name": "Material2",
      "primitives": [
        {
          "attributes": {
            "NORMAL": 6,
            "POSITION": 5,
            "TANGENT": 7,
            "TEXCOORD_0": 8
          },
          "indices": 9,
          "material": 1,
          "mode": 4
        }
      ]
    },
    {
      "name": "Material2",
      "primitives": [
        {
          "attributes": {
            "NORMAL": 11,
            "POSITION": 10,
            "TANGENT": 12,
            "TEXCOORD_0": 13
          },
          "indices": 14,
          "material": 2,
          "mode": 4
        }
      ]
    },
    {
      "name": "Material2",
      "primitives": [
        {
          "attributes": {
            "NORMAL": 16,
            "POSITION": 15,
            "TEXCOORD_0": 17
          },
          "indices": 18,
          "material": 3,
          "mode": 4
        }
      ]
    },
    {
      "name": "Material2",
      "primitives": [
        {
          "attributes": {
            "NORMAL": 20,
            "POSITION": 19,
            "TANGENT": 21,
            "TEXCOORD_0": 22
          },
          "indices": 23,
          "material": 4,
          "mode": 4
        }
      ]
    },
    {
      "name": "Material2",
      "primitives": [
        {
          "attributes": {
            "NORMAL": 25,
            "POSITION": 24
          },
          "indices": 26,
          "material": 5,
          "mode": 4
        }
      ]
    },
    {
      "name": "Material2",
      "primitives": [
        {
          "attributes": {
            "NORMAL": 28,
            "POSITION": 27,
            "TEXCOORD_0": 29
          },
          "indices": 30,
          "material": 6,
          "mode": 4
        }
      ]
    },
    {
      "name": "Material2",
      "primitives": [
        {
          "attributes": {
            "POSITION": 31
          },
          "indices": 32,
          "material": 7,
          "mode": 1
        }
      ]
    },
    {
      "name": "Material2",
      "primitives": [
        {
          "attributes": {
            "NORMAL": 34,
            "POSITION": 33
          },
          "indices": 35,
          "material": 8,
          "mode": 4
        }
      ]
    }
  ],
  "nodes": [
    {
      "children": [
        1
      ],
      "matrix": [
        1.0,
        0.0,
        0.0,
        0.0,
        0.0,
        2.220446049250313e-16,
        -1.0,
        0.0,
        0.0,
        1.0,
        2.220446049250313e-16,
        0.0,
        0.0,
        0.0,
        0.0,
        1.0
      ],
      "name": "Sketchfab_model"
    },
    {
      "children": [
        2,
        3,
        4,
        5,
        6,
        7,
        8,
        9,
        10,
        11
      ],
      "name": "Collada visual scene group"
    },
    {
      "mesh": 0,
      "name": "Material2"
    },
    {
      "mesh": 1,
      "name": "Material2"
    },
    {
      "mesh": 2,
      "name": "Material2"
    },
    {
      "mesh": 3,
      "name": "Material2"
    },
    {
      "mesh": 4,
      "name": "Material2"
    },
    {
      "mesh": 5,
      "name": "Material2"
    },
    {
      "mesh": 6,
      "name": "Material2"
    },
    {
      "mesh": 7,
      "name": "Material2"
    },
    {
      "mesh": 8,
      "name": "Material2"
    },
    {
      "children": [
        12
      ],
      "name": "SketchUp"
    },
    {
      "children": [
        13
      ],
      "matrix": [
        0.03762973,
        -0.9992918,
        0.0,
        0.0,
        0.02460926,
        0.0009266962,
        0.9996967,
        0.0,
        -0.9989887,
        -0.03761831,
        0.02462671,
        0.0,
        -123.9176,
        11.63741,
        55.08209,
        1.0
      ],
      "name": "skp_camera_Last_Saved_SketchUp_View"
    },
    {
      "name": "ID1"
    }
  ],
  "samplers": [
    {
      "magFilter": 9729,
      "minFilter": 9987,
      "wrapS": 10497,
      "wrapT": 10497
    }
  ],
  "scene": 0,
  "scenes": [
    {
      "name": "Sketchfab_Scene",
      "nodes": [
        0
      ]
    }
  ],
  "textures": [
    {
      "sampler": 0,
      "source": 0
    },
    {
      "sampler": 0,
      "source": 1
    },
    {
      "sampler": 0,
      "source": 2
    },
    {
      "sampler": 0,
      "source": 3
    },
    {
      "sampler": 0,
      "source": 4
    },
    {
      "sampler": 0,
      "source": 5
    },
    {
      "sampler": 0,
      "source": 6
    },
    {
      "sampler": 0,
      "source": 7
    },
    {
      "sampler": 0,
      "source": 8
    },
    {
      "sampler": 0,
      "source": 9
    },
    {
      "sampler": 0,
      "source": 10
    },
    {
      "sampler": 0,
      "source": 11
    },
    {
      "sampler": 0,
      "source": 12
    },
    {
      "sampler": 0,
      "source": 13
    },
    {
      "sampler": 0,
      "source": 14
    }
  ]
}
